<?xml version="1.0" encoding="utf-8"?>
<!-- Generator: Adobe Illustrator 23.0.4, SVG Export Plug-In . SVG Version: 6.00 Build 0)  -->
<svg version="1.1" id="Layer_1" xmlns="http://www.w3.org/2000/svg" xmlns:xlink="http://www.w3.org/1999/xlink" x="0px" y="0px"
	 viewBox="0 0 620 240" style="enable-background:new 0 0 620 240;" xml:space="preserve">
<style type="text/css">
	.st0{fill:#433A3E;}
	.st1{fill:url(#SVGID_1_);}
	.st2{fill:#B8DFF6;}
	.st3{fill:url(#SVGID_2_);}
	.st4{fill:#A4D7BF;}
	.st5{fill:#60969F;}
	.st6{fill:url(#SVGID_3_);}
	.st7{fill:url(#SVGID_4_);}
	.st8{fill:url(#SVGID_5_);}
	.st9{fill:#A4D7BB;}
	.st10{fill:url(#SVGID_6_);}
	.st11{fill:url(#SVGID_7_);}
	.st12{fill:url(#SVGID_8_);}
	.st13{fill:url(#SVGID_9_);}
</style>
<g>
	<path class="st0" d="M256.8,49.1c5.2,0,9.5,3.6,10.6,10.2l11.4,62.7l1.8-3.6c11.6-23,20-45.9,20-63c0-4-0.8-6.2-0.8-6.2
		s1.8-1.6,4.9-1.6c7.3,0,10.4,4.2,10.4,11.6c0,13.3-11.4,31.3-26.4,60.6l-7.8,15.2l-3.4,25.8c-1.6,12.1-0.1,16.4-0.1,16.4
		s-2.1,1.7-7.4,1.7c-9.6,0-11.4-5.5-9.7-18.9l3.2-25.1l-13.8-76c-9.5,1.6-14,9.3-14,18.3c0,4.8,1.9,8,5.2,8c1.4,0,2.2-0.5,2.2-0.5
		s0.1,0.5,0.1,1.6c0,4.2-3.2,9.7-9.9,9.7c-8.4,0-13.6-6.9-13.6-17.3c0-17.1,11.8-29.6,32.7-29.6H256.8z"/>
	<path class="st0" d="M367.3,125.4c0,3.8-0.3,7.4-0.6,10.9c-0.5,5-0.9,6-1.3,8c-4.4,20.6-16.4,34.6-34,34.6
		c-13.8,0-23.9-11.6-23.9-33.1c0-31.3,13.8-53.5,36-53.5C358.6,92.4,367.3,105.7,367.3,125.4z M350.5,114.2
		c-0.6-8.7-3.6-13.3-8.4-13.3c-6.5,0-13.2,8.8-16.9,34.6c-0.6,4.5-1.2,13.5-1.2,17.8c0,10.9,3.1,17,8.6,17c7,0,12.9-9.9,16.2-30.6
		C349.7,134.9,351.3,123.1,350.5,114.2z"/>
	<path class="st0" d="M441,141.4l2.2,9.5c1.9,8.5,4.4,13,8.6,13c6,0,11.2-10.7,12.7-15.1c1.9,0,2.7,1.7,2.5,4.5
		c-0.9,9.7-10.8,25.6-22.5,25.6c-9.2,0-15.2-8.1-17.8-21.5l-2.5-12.6c-1.8-9.3-4.3-14.2-10.1-14.2h-7.4l-3.9,30.1
		c-1.6,12.1-0.1,16.4-0.1,16.4s-2.1,1.7-7.4,1.7c-9.6,0-11.4-5.5-9.7-18.9l9.7-74.6c1.6-11.9,0.1-16.3,0.1-16.3s2.1-1.7,7.4-1.7
		c9.6,0,11.4,5.5,9.7,18.9l-4.5,34.8h4.9c15.3,0,25.2-12.6,25.2-32.9c0-17.8-9.1-29.4-32.8-29.6c-19.7,0-27,12.3-27,22.2
		c0,4.8,1.9,8,5.2,8c1.4,0,2.2-0.5,2.2-0.5s0.1,0.5,0.1,1.6c0,4.2-3.2,9.7-9.9,9.7c-8.4,0-13.6-6.9-13.6-17.3
		c0-17.1,13.6-33.1,44-33.1c34.4,0,49.8,16.4,49.8,40.2c0,19-13.5,33.2-28.9,35.8C433.6,127,439,132.4,441,141.4z"/>
	<path class="st0" d="M466,108.8c1.4-11.1,0.1-14.9,0.1-14.9s1.9-1.6,6.7-1.6c10,0,11.2,5,9.6,17.1l-5.1,39.1
		c-1.3,10.4,0.9,15.2,5.6,15.2c4.4,0,10.3-5.7,13.6-15.1c1.7,0,2.9,1.4,2.5,4.5c-1.3,9.2-10.6,25.6-23.2,25.6
		c-9,0-15.2-7.8-15.2-21.6c0-3.5,0.3-9.5,1.2-16.4L466,108.8z M479.6,53.9c4.9,0,8,4.7,8,10.9c0,6.1-3.6,11.9-9.3,11.9
		c-4.7,0-7.8-4.3-7.8-10.4C470.5,59.3,474.6,53.9,479.6,53.9z"/>
	<path class="st0" d="M556.9,144.5h-2.1c-5.1,21.5-17,34.4-29.6,34.4c-6.2,0-11.4-3.3-15.1-8.5l-6.9,52.6
		c-1.4,10.9-0.1,14.9-0.1,14.9s-1.9,1.6-6.7,1.6c-10,0-11.2-5-9.6-17.1l14.8-113.5c1.4-10.9,0.1-14.9,0.1-14.9s1.9-1.6,6.7-1.6
		c10,0,11.2,5,9.6,17.1l-0.4,3.1c5.5-13.2,12.7-20.2,20.9-20.2c12.1,0,18.7,11.4,18.7,29.4c0,5.5-0.5,10.7-1.2,15.8h2.9
		c8.7-0.2,14.3-3.1,14.3-3.1c1.3,1.2,1,4.2-0.4,5.9C570.7,143.1,564,144.5,556.9,144.5z M512.4,153.1l-0.9,6.6
		c1.7,3.6,4.7,7.4,9.9,7.4c7.3,0,14.3-11.2,17.5-27.9c-3.5-3.3-4.9-7.8-4.9-13.3c0-5.7,2.3-10.6,6.5-11.8c-0.8-5.9-3-8.5-6.4-8.5
		c-3.9,0-7.7,4.3-12.1,13.7C518.4,127.2,514.8,137.4,512.4,153.1z"/>
	<path class="st0" d="M619.8,110.5c0,19-19.5,27.2-36.5,31.7c1.3,13.2,8,23,19.5,23c8.8,0,12.2-7.3,12.2-7.3c1.6,0,2.3,1,2.1,3.1
		c-0.9,7.4-9.6,17.8-22.6,17.8c-17.8,0-28-17-28-37.6c0-31,18-49,34.3-49C614.6,92.4,619.8,101.2,619.8,110.5z M583.3,134.1
		c15.8-5,22.6-15.8,22.6-26.7c0-4.7-2.1-6.4-4.7-6.4C592.8,101,584.6,114.9,583.3,134.1z"/>
</g>
<linearGradient id="SVGID_1_" gradientUnits="userSpaceOnUse" x1="54.1858" y1="188.0615" x2="163.0594" y2="-0.5132">
	<stop  offset="0.1411" style="stop-color:#D767A6"/>
	<stop  offset="0.6492" style="stop-color:#F0654B"/>
	<stop  offset="1" style="stop-color:#FAC149"/>
</linearGradient>
<path class="st1" d="M186.1,64.9C183.3,76,173.2,91,160.7,92.5C186.4,33,163.9,0,163.9,0C148,28.7,110.2,44.7,78.3,54
	c7.2-10.8,12-18.4,14.4-32.1c-15.3,18-40,23.4-57.7,39.6C11,83.5,0.5,121,20.4,157c12.2,22,33.3,33.6,55.2,36
	C195.1,206,190.4,81.4,186.1,64.9z"/>
<path class="st2" d="M134.8,160.7c2.5,2.8,4,5.8,2,8.7c-22.1,31.7-65.2,41.7-99.3,22s-47-62-30.6-97c1.5-3.2,3.9-3.8,8.5-2.7
	c4.6,1.1,29.1,5.9,64.4,26.3S132.3,157.9,134.8,160.7z"/>
<linearGradient id="SVGID_2_" gradientUnits="userSpaceOnUse" x1="-2737.4958" y1="4418.8921" x2="-2587.4531" y2="4418.8921" gradientTransform="matrix(0.866 0.5 -0.5 0.866 4573.8101 -2340.9431)">
	<stop  offset="0.4428" style="stop-color:#73BEB9"/>
	<stop  offset="1" style="stop-color:#A4D7BF"/>
</linearGradient>
<path class="st3" d="M134.8,160.7c2.5,2.8,4,5.8,2,8.7c-22.1,31.7-65.2,41.7-99.3,22s-47-62-30.6-97c1.5-3.2,3.9-3.8,8.5-2.7
	c4.6,1.1,29.1,5.9,64.4,26.3S132.3,157.9,134.8,160.7z"/>
<path class="st4" d="M95.1,137.8c2.5,2.8,3.7,5.6,2,8.7c-25.5,44.2-65.5,41.3-68.2,39.2c-27.6-21.4-37-59.4-22.1-91.3
	c1.5-3.2,3.9-3.8,8.5-2.7c4.6,1.1,29.1,5.9,64.4,26.3S92.6,135,95.1,137.8z"/>
<path class="st5" d="M116,147.4c-1.9-1.6-3.9-3.2-6-4.8c-8.9-6.8-20.2-14.4-33-21.8c-32.3-18.6-61.3-28.7-64.3-23.5
	c-2.1,3.6,8.1,14,25,26.3c7.9,5.7,17.2,11.8,27.5,17.7c26.7,15.4,51.2,25,60.6,24.9c1.9,0,3.3-0.5,3.8-1.4
	C131,162.1,125.7,155.6,116,147.4z"/>
<linearGradient id="SVGID_3_" gradientUnits="userSpaceOnUse" x1="2389.0303" y1="2396.9431" x2="2412.156" y2="2356.8879" gradientTransform="matrix(0.9074 -0.4203 0.4203 0.9074 -3136.9216 -1033.625)">
	<stop  offset="0.2746" style="stop-color:#72BF6F"/>
	<stop  offset="0.806" style="stop-color:#B6D770"/>
</linearGradient>
<path class="st6" d="M36.6,136.7c4.5,1.6,9.7,1.4,14.1-1.7c7.3-5.1,11.5-15.4-1.4-25.4c-3-2.4-11.1-11.5-11.4-18.6
	c0,0-7.5,4.2-8.2,18.2c-2.3-1.5-2.8-5.3-2.3-7.8C25,104.1,12.2,127.8,36.6,136.7z"/>
<linearGradient id="SVGID_4_" gradientUnits="userSpaceOnUse" x1="533.8521" y1="417.6996" x2="631.2324" y2="417.6996" gradientTransform="matrix(0.9971 -7.610592e-02 7.610592e-02 0.9971 -511.6895 -272.653)">
	<stop  offset="0" style="stop-color:#FFFFFF"/>
	<stop  offset="0.3792" style="stop-color:#FFFFFF"/>
	<stop  offset="1" style="stop-color:#F7E3A0"/>
</linearGradient>
<path class="st7" d="M141.2,57c-2.1-0.3-6.6-0.3-8.7,6.2c-3,9.2-12.8,33.5-18.9,41.2c-6.2,7.9-3.7-10-3.8-17.9
	c-0.1-11.2-6-18.2-10-20.7C87.3,58,76,67.2,72.5,78.3c-2.1,6.7-0.2,12.3,5.3,14c4.3,1.4,8.6-5.3,8.6-5.3s-0.6,0.2-1.5-0.1
	c-2.1-0.7-2.7-3.1-1.7-6.2c1.1-3.4,3.1-6.3,5.9-7.8c3.1-1.7,7,6.6,7.8,10.1c1.9,8,4.9,24.4,3.6,29c-1.4,5-33.1,19.8-45.9,19.6
	c6.7,4.1,10.2,5.5,18.9,9.7c12.8,0.3,30.3-11.5,38.3-19.8c9.8-10.2,28.7-32.8,33.4-47.2C149.9,59.6,144.6,57.5,141.2,57z"/>
<linearGradient id="SVGID_5_" gradientUnits="userSpaceOnUse" x1="-2661.9685" y1="4424.0278" x2="-2636.4094" y2="4379.7583" gradientTransform="matrix(0.866 0.5 -0.5 0.866 4573.8101 -2340.9431)">
	<stop  offset="0" style="stop-color:#FFFFFF"/>
	<stop  offset="0.3792" style="stop-color:#FFFFFF"/>
	<stop  offset="1" style="stop-color:#F7E3A0"/>
</linearGradient>
<path class="st8" d="M115.6,148.1c0.1-0.3,0.2-0.5,0.3-0.7c1.1-1.4,4.2-0.6,5.2-3.9c0.6-2-2.1-3.5-6.7-2.7c-1.5,0.2-3,1-4.6,1.8
	c-4.7,2.5-10.2,5.8-17.9-1.4c-3.9-3.7-3.7-8.6-12.7-14.2c-14.8-9.3-39-5.9-41.8-3.4c7.9,5.7,17.2,11.8,27.5,17.7
	c26.7,15.4,51.2,25,60.6,24.9C126.6,163.7,114.9,150.7,115.6,148.1z"/>
<path class="st9" d="M37.7,123.6C50.9,133.9,87.3,153,91.6,155c-25.4,35.3-60.2,32.6-62.6,30.6c-27.6-21.4-37-59.4-22.1-91.3
	C16.1,108,28.6,116.5,37.7,123.6z"/>
<linearGradient id="SVGID_6_" gradientUnits="userSpaceOnUse" x1="1152.949" y1="-266.8651" x2="1163.6816" y2="-262.2039" gradientTransform="matrix(0.9885 -0.1513 0.1513 0.9885 -983.4111 592.6132)">
	<stop  offset="0" style="stop-color:#FFFEF0"/>
	<stop  offset="1" style="stop-color:#F7E3A0"/>
</linearGradient>
<path class="st10" d="M127.7,155c0.3,2-2.2,4.1-5.5,4.6c-3.4,0.5-6.3-0.7-6.7-2.7c-0.3-2,2.2-4.1,5.5-4.6
	C124.4,151.7,127.4,153,127.7,155z"/>
<linearGradient id="SVGID_7_" gradientUnits="userSpaceOnUse" x1="1166.4865" y1="-273.8977" x2="1173.5547" y2="-270.828" gradientTransform="matrix(0.9885 -0.1513 0.1513 0.9885 -983.4111 592.6132)">
	<stop  offset="0" style="stop-color:#FFFEF0"/>
	<stop  offset="1" style="stop-color:#F7E3A0"/>
</linearGradient>
<path class="st11" d="M136,145.8c0.2,1.3-1.4,2.7-3.6,3c-2.2,0.3-4.2-0.5-4.4-1.8s1.4-2.7,3.6-3S135.8,144.5,136,145.8z"/>
<linearGradient id="SVGID_8_" gradientUnits="userSpaceOnUse" x1="-2319.6897" y1="3712.5305" x2="-2319.6897" y2="3699.613" gradientTransform="matrix(0.9077 0.4196 -0.4196 0.9077 3735.0239 -2263.429)">
	<stop  offset="0" style="stop-color:#F8A34C"/>
	<stop  offset="1" style="stop-color:#FFD188"/>
</linearGradient>
<path class="st12" d="M65.4,125.5l8.5-4.3c1.5-0.7,3.2-0.1,4,1.3l4.3,8.5c0.7,1.5,0.1,3.2-1.3,4c0,0-2.8-2.4-7.5-2.5
	c-4.8-0.1-9.2-3.1-9.2-3.1C63.3,128,63.9,126.2,65.4,125.5z"/>
<linearGradient id="SVGID_9_" gradientUnits="userSpaceOnUse" x1="3584.8469" y1="-4918.4077" x2="3603.2332" y2="-4918.4077" gradientTransform="matrix(0.9797 -0.2006 0.2006 0.9797 -2418.6917 5673.8901)">
	<stop  offset="0" style="stop-color:#F8A34C"/>
	<stop  offset="1" style="stop-color:#FFD188"/>
</linearGradient>
<path class="st13" d="M110.5,142.5l-4.4-9c-0.8-1.5-0.1-3.4,1.4-4.2l9-4.4c1.5-0.8,3.4-0.1,4.2,1.4l4.4,9c0.8,1.5,0.1,3.4-1.4,4.2
	l-9,4.4C113.1,144.7,111.3,144.1,110.5,142.5z"/>
</svg>
